<svg xmlns="http://www.w3.org/2000/svg" width="130" height="35" viewBox="0 0 130 35"><title>1F619A5F-8E98-4A0D-89C1-26E93EBD52CD</title><g fill="none" fill-rule="evenodd"><path fill="#FFF" d="M129.848 26.853a1.048 1.048 0 0 1-.392 1.415l-2.004 1.143a1.025 1.025 0 0 1-1.395-.392l-3.367-6.04.054-.005c.098-.006 2.068-.15 4.068-1.565l3.036 5.445zm-3.12-6.54c-.122.1-.245.193-.368.282-1.817 1.313-3.653 1.454-3.674 1.455l-.495.032a238.238 238.238 0 0 0-1 .06h-4.844V17.75h4.896c.15 0 .422-.01.754-.058.635-.092 1.487-.33 2.143-.93l.09-.083c.607-.605.902-1.458.902-2.608 0-1.118-.288-1.95-.882-2.544-.76-.758-1.058-.87-1.216-.885-.83-.09-2.18-.163-3.012-.163h-3.676V7.108a1.96 1.96 0 0 0-.287-1.02H120c.814 0 2.138.026 2.952.057.023 0 2.23.126 4.367 2.264 1.42 1.42 2.17 3.378 2.17 5.662 0 2.93-1.196 4.735-2.2 5.733a6.83 6.83 0 0 1-.56.507zm-12.17-14.225c.49.076.87.502.87 1.02v21.32c0 .57-.46 1.035-1.026 1.035H112.1a1.032 1.032 0 0 1-1.028-1.036V7.107c0-.57.46-1.035 1.027-1.035h2.302c.053 0 .104.008.155.016zM105.64 25.11c.566 0 1.027.465 1.027 1.036v2.322c0 .57-.46 1.036-1.028 1.036H95.624c.187-.3.296-.656.296-1.036V25.11h9.722zm0-9.5c.566 0 1.027.466 1.027 1.037v2.322c0 .57-.46 1.034-1.028 1.034H95.92V15.61h9.722zm0-9.498c.566 0 1.027.465 1.027 1.036V9.47c0 .57-.46 1.035-1.028 1.035H95.92V7.148c0-.38-.11-.735-.296-1.036h10.018zm-11.666 0c.567 0 1.027.465 1.027 1.036v21.32c0 .57-.46 1.036-1.027 1.036h-2.302a1.033 1.033 0 0 1-1.027-1.036V7.148c0-.57.46-1.036 1.027-1.036h2.302zM78.25 17.84l8.31 8.472c.19.195.295.456.294.733a1.03 1.03 0 0 1-.303.73l-1.717 1.71c-.192.193-.45.3-.722.3-.277 0-.537-.11-.73-.307l-8.52-8.684 3.39-2.954zm-.3-.962l-.347.303-2.753 2.4V13.62L83.5 6.08a1.01 1.01 0 0 1 1.437.112l1.566 1.858a1.057 1.057 0 0 1-.112 1.47L78.3 16.574l-.347.303zM72.905 6.27c.567 0 1.028.464 1.028 1.035v21.32c0 .57-.46 1.035-1.028 1.035h-2.302a1.032 1.032 0 0 1-1.027-1.035V7.303c0-.57.46-1.034 1.027-1.034h2.302zM52.03 20.5h5.14l2.153 4.393H49.88l2.15-4.393zm-.795-.462l-.227.462-2.15 4.393-.228.463-.226.462-1.53 3.127c-.174.353-.54.58-.935.58-.157 0-.308-.035-.45-.104l-2.068-1.016a1.02 1.02 0 0 1-.517-.593 1.03 1.03 0 0 1 .05-.786l2.1-4.29.46-.937.77-1.572.294-.602 5.08-10.376.258-.527.348-.71.292-.598.363-.74.016-.027c.178-.337.534-.554.918-.554.058 0 .114.01.17.02.096.017.19.04.278.085l.298.146 1.77.87c.105.053.195.123.273.203a1.022 1.022 0 0 1 .196 1.18l-2.24 4.57-.255.522-.256.522-2.63 5.368-.226.463zm6.307-10.79l8.707 17.776c.12.246.137.526.048.788a1.018 1.018 0 0 1-.517.592l-2.07 1.017c-.14.07-.29.105-.446.105-.395 0-.76-.227-.934-.58l-1.602-3.273-.204-.416-.206-.42-2.123-4.336-.226-.462-.228-.462-2.63-5.37 2.43-4.96z"/><path fill="#498744" d="M20.21 28.324a7.828 7.828 0 0 0 1.65-2.235c.407-.84.65-1.747.716-2.704.066-.956.03-1.126.03-1.126a55.953 55.953 0 0 0-.447-2.017c-.045-.145-.582-.072-1.195.16-.614.234-1.83.778-2.7 1.21 0 0-.16.078-.85.736l-.558.53c-.454.69-.826.45-.826-.537v-2.585c0-.986.688-2.198 1.526-2.693l4.88-2.878c.837-.495 1.612-.95 1.72-1.008.105-.06.504-.306.655-.395.154-.09.278.643.28 1.63l.01 14.054c0 .985-.684 2.195-1.524 2.69l-6.018 3.53c-.84.494-1.527.09-1.527-.896V32.3c0-.985.394-1.94.874-2.124.48-.182 1.587-.684 2.46-1.116 0 0 .157-.077.847-.736zm9.305-18.315c.84-.496 1.526-.094 1.526.892v14.08c0 .988-.687 2.198-1.527 2.69l-1.86 1.093c-.84.493-1.53.09-1.53-.896l-.012-14.06c0-.985.687-2.196 1.525-2.692l1.88-1.11zm-6.234 2.458a6.77 6.77 0 0 1-2.297.623 6.175 6.175 0 0 1-4.512-1.45l-.984-.825a6.596 6.596 0 0 1 1.598-1.118 5.985 5.985 0 0 1 2.277-.616 6.567 6.567 0 0 1 2.368.29 6.165 6.165 0 0 1 2.158 1.19l.965.81a5.812 5.812 0 0 1-.903.722l-.417.246c-.082.044-.164.09-.25.13z"/><path fill="#7EB445" d="M15.015 33.737c0 .984-.688 1.386-1.528.894l-11.96-7C.687 27.14 0 25.93 0 24.948v-1.913c0-.984.688-1.387 1.528-.896l11.958 6.986c.84.49 1.53 1.698 1.53 2.682v1.93zM4.26 12.684c-.087.52-.213 1.746-.282 2.727 0 0-.013.178.203 1.113.213.93.577 1.79 1.082 2.563a7.138 7.138 0 0 0 1.943 1.978c.782.535.944.59.944.59.922.302 1.797.58 1.942.612.145.034.353-.475.46-1.13.11-.655.254-1.994.32-2.975 0 0 .014-.178-.202-1.112l-.176-.77c-.37-.755.012-.97.853-.48l2.14 1.254c.84.492 1.527 1.7 1.527 2.683v7.296c0 .985-.687 1.388-1.528.897L1.53 20.94C.69 20.45 0 19.243 0 18.258v-7.313c0-.983.688-1.386 1.53-.894l1.36.797c.84.492 1.455 1.318 1.37 1.837zm11.844 14.658a7.03 7.03 0 0 1 .618-2.33 6.335 6.335 0 0 1 1.4-1.936 6.224 6.224 0 0 1 2.094-1.303l1.195-.453c.148.654.2 1.31.155 1.96a6.234 6.234 0 0 1-.614 2.308 6.78 6.78 0 0 1-1.43 1.935 6.19 6.19 0 0 1-2.093 1.302l-1.173.444a5.82 5.82 0 0 1-.15-1.928z"/><path fill="#AFCA47" d="M9.67 17.26c.184.8.207 1.636.066 2.486l-.21 1.275a6.574 6.574 0 0 1-1.75-.843 6.102 6.102 0 0 1-1.664-1.69 6.813 6.813 0 0 1-.937-2.22 6.363 6.363 0 0 1-.066-2.485l.206-1.25a5.642 5.642 0 0 1 1.72.83 6.902 6.902 0 0 1 1.68 1.705c.45.653.77 1.39.954 2.193zm15.562-6.932c-.383-.32-1.353-1.03-2.157-1.58 0 0-.145-.1-1.05-.378a7.672 7.672 0 0 0-2.728-.33c-.918.057-1.812.3-2.66.715-.85.42-.975.534-.975.534a54.748 54.748 0 0 0-1.494 1.396c-.1.11.23.546.734.968.505.422 1.577 1.216 2.38 1.766 0 0 .146.1 1.05.378l.703.215c.782.06.736.513-.103 1.006l-1.888 1.11c-.84.49-2.212.493-3.052.002L7.867 12.55c-.84-.49-.84-1.295 0-1.786l11.94-6.996c.84-.49 2.213-.492 3.053 0l6.1 3.566c.84.49.842 1.296.003 1.79l-1.512.888c-.838.493-1.837.635-2.22.316zM2.038 9.143c-.84-.49-.84-1.295 0-1.786L13.992.367c.84-.49 2.214-.49 3.054 0l1.737 1.017c.84.49.84 1.295 0 1.787l-11.94 6.996c-.84.49-2.213.492-3.053 0L2.038 9.144z"/></g></svg>
